<svg xmlns="http://www.w3.org/2000/svg" width="435" height="423" viewBox="0 0 435 423">
    <g fill="none" fill-rule="evenodd" opacity=".5">
        <g fill="#FF8400">
            <g>
                <path d="M217.268 328.21H217.213c-10.105 0-19.878-1.343-29.247-3.625-52.456-12.77-91.365-58.753-91.365-113.606 0-2.613.22-5.133.386-7.691 3.902-61.532 56.156-110.275 120.226-110.275 66.61 0 120.594 52.644 120.594 117.58 0 4.085-.203 8.115-.626 12.09-6.037 59.194-57.407 105.527-119.913 105.527M217.555 0C97.375 0 0 94.728 0 211.51 0 328.31 97.376 423 217.555 423c49.635 0 95.243-16.315 131.876-43.648C371.959 415.992 435 423 435 423V211.51C435 94.727 337.588 0 217.555 0" opacity=".732" transform="translate(-958 -337) translate(958 337)"/>
            </g>
        </g>
    </g>
</svg>
