<?xml version="1.0" encoding="utf-8"?>
<!-- Generator: Adobe Illustrator 24.1.2, SVG Export Plug-In . SVG Version: 6.00 Build 0)  -->
<svg version="1.1" id="Layer_1" xmlns="http://www.w3.org/2000/svg" xmlns:xlink="http://www.w3.org/1999/xlink" x="0px" y="0px"
	 viewBox="0 0 230 135" style="enable-background:new 0 0 230 135;" xml:space="preserve">
<style type="text/css">
	.st0{fill:none;}
	.st1{fill:#FFFFFF;}
</style>
<g>
	<path class="st0" d="M157.9,45.2H115c-47.2,0.5-75.3,24.3-90.6,44.1C10,108.2,4,127.1,2.7,131.7h156.2c25.1-0.1,49.1-5.3,71.2-14.6
		V16.7c-4.4,4.2-9.3,8.1-14.6,11.6C198.4,39.4,178.5,45.2,157.9,45.2z"/>
	<path class="st1" d="M158.8,131.7H2.7c1.3-4.7,7.3-23.6,21.8-42.4C39.7,69.5,67.8,45.7,115,45.2h42.8c20.7,0,40.6-5.9,57.6-17
		c5.3-3.4,10.1-7.3,14.6-11.6v-2.5c-4.7,4.6-9.9,8.8-15.5,12.5c-16.7,10.9-36.3,16.7-56.6,16.7H115C67.1,44,38.6,68.1,23.1,88.3
		C6.3,110.1,0.7,132.2,0.7,132.4l-0.3,1.1h1.1h157.3c25-0.1,49.1-5.3,71.2-14.5v-1.9C208,126.4,183.9,131.6,158.8,131.7z"/>
</g>
</svg>
