<?xml version="1.0" encoding="utf-8"?>
<!-- Generator: Adobe Illustrator 25.3.1, SVG Export Plug-In . SVG Version: 6.00 Build 0)  -->
<svg version="1.1" id="Layer_1" xmlns="http://www.w3.org/2000/svg" xmlns:xlink="http://www.w3.org/1999/xlink" x="0px" y="0px"
	 viewBox="0 0 601 739" style="enable-background:new 0 0 601 739;" xml:space="preserve">
<style type="text/css">
	.st0{fill:none;}
	.st1{fill:none;stroke:#D5EEF5;stroke-width:3.1372;stroke-miterlimit:10;}
	.st2{fill-rule:evenodd;clip-rule:evenodd;fill:url(#SVGID_2_);}
</style>
<pattern  y="739" width="159" height="135" patternUnits="userSpaceOnUse" id="SVGID_1_" viewBox="159 -136.6 159 135" style="overflow:visible;">
	<g>
		<rect x="159" y="-136.6" class="st0" width="159" height="135"/>
		<g>
			<rect x="159" y="-136.6" class="st0" width="159" height="135"/>
			<g>
				<line class="st1" x1="477" y1="-136.6" x2="318" y2="-136.6"/>
			</g>
			<g>
				<line class="st1" x1="318" y1="-136.6" x2="159" y2="-136.6"/>
			</g>
			<g>
				<line class="st1" x1="159" y1="-136.6" x2="0" y2="-136.6"/>
			</g>
			<g>
				<line class="st1" x1="477" y1="-114.1" x2="318" y2="-114.1"/>
				<line class="st1" x1="477" y1="-102.9" x2="318" y2="-102.9"/>
				<line class="st1" x1="477" y1="-125.4" x2="318" y2="-125.4"/>
				<line class="st1" x1="477" y1="-136.6" x2="318" y2="-136.6"/>
				<line class="st1" x1="477" y1="-91.6" x2="318" y2="-91.6"/>
			</g>
			<g>
				<line class="st1" x1="318" y1="-114.1" x2="159" y2="-114.1"/>
				<line class="st1" x1="318" y1="-102.9" x2="159" y2="-102.9"/>
				<line class="st1" x1="318" y1="-125.4" x2="159" y2="-125.4"/>
				<line class="st1" x1="318" y1="-136.6" x2="159" y2="-136.6"/>
				<line class="st1" x1="318" y1="-91.6" x2="159" y2="-91.6"/>
			</g>
			<g>
				<line class="st1" x1="159" y1="-114.1" x2="0" y2="-114.1"/>
				<line class="st1" x1="159" y1="-102.9" x2="0" y2="-102.9"/>
				<line class="st1" x1="159" y1="-125.4" x2="0" y2="-125.4"/>
				<line class="st1" x1="159" y1="-136.6" x2="0" y2="-136.6"/>
				<line class="st1" x1="159" y1="-91.6" x2="0" y2="-91.6"/>
			</g>
			<g>
				<line class="st1" x1="477" y1="-69.1" x2="318" y2="-69.1"/>
				<line class="st1" x1="477" y1="-57.9" x2="318" y2="-57.9"/>
				<line class="st1" x1="477" y1="-80.4" x2="318" y2="-80.4"/>
				<line class="st1" x1="477" y1="-91.6" x2="318" y2="-91.6"/>
				<line class="st1" x1="477" y1="-46.6" x2="318" y2="-46.6"/>
			</g>
			<g>
				<line class="st1" x1="318" y1="-69.1" x2="159" y2="-69.1"/>
				<line class="st1" x1="318" y1="-57.9" x2="159" y2="-57.9"/>
				<line class="st1" x1="318" y1="-80.4" x2="159" y2="-80.4"/>
				<line class="st1" x1="318" y1="-91.6" x2="159" y2="-91.6"/>
				<line class="st1" x1="318" y1="-46.6" x2="159" y2="-46.6"/>
			</g>
			<g>
				<line class="st1" x1="159" y1="-69.1" x2="0" y2="-69.1"/>
				<line class="st1" x1="159" y1="-57.9" x2="0" y2="-57.9"/>
				<line class="st1" x1="159" y1="-80.4" x2="0" y2="-80.4"/>
				<line class="st1" x1="159" y1="-91.6" x2="0" y2="-91.6"/>
				<line class="st1" x1="159" y1="-46.6" x2="0" y2="-46.6"/>
			</g>
			<g>
				<line class="st1" x1="477" y1="-24.1" x2="318" y2="-24.1"/>
				<line class="st1" x1="477" y1="-12.9" x2="318" y2="-12.9"/>
				<line class="st1" x1="477" y1="-35.4" x2="318" y2="-35.4"/>
				<line class="st1" x1="477" y1="-46.6" x2="318" y2="-46.6"/>
				<line class="st1" x1="477" y1="-1.6" x2="318" y2="-1.6"/>
			</g>
			<g>
				<line class="st1" x1="318" y1="-24.1" x2="159" y2="-24.1"/>
				<line class="st1" x1="318" y1="-12.9" x2="159" y2="-12.9"/>
				<line class="st1" x1="318" y1="-35.4" x2="159" y2="-35.4"/>
				<line class="st1" x1="318" y1="-46.6" x2="159" y2="-46.6"/>
				<line class="st1" x1="318" y1="-1.6" x2="159" y2="-1.6"/>
			</g>
			<g>
				<line class="st1" x1="159" y1="-24.1" x2="0" y2="-24.1"/>
				<line class="st1" x1="159" y1="-12.9" x2="0" y2="-12.9"/>
				<line class="st1" x1="159" y1="-35.4" x2="0" y2="-35.4"/>
				<line class="st1" x1="159" y1="-46.6" x2="0" y2="-46.6"/>
				<line class="st1" x1="159" y1="-1.6" x2="0" y2="-1.6"/>
			</g>
			<g>
				<line class="st1" x1="477" y1="-1.6" x2="318" y2="-1.6"/>
			</g>
			<g>
				<line class="st1" x1="318" y1="-1.6" x2="159" y2="-1.6"/>
			</g>
			<g>
				<line class="st1" x1="159" y1="-1.6" x2="0" y2="-1.6"/>
			</g>
		</g>
	</g>
</pattern>
<g>
	<g>
		<g>
			<g transform="translate(72 -611) translate(-72 544) translate(0 67)">
				<pattern  id="SVGID_2_" xlink:href="#SVGID_1_" patternTransform="matrix(0.3584 0 0 -0.6654 -10085.1934 -11891.4824)">
				</pattern>
				<path class="st2" d="M294,167c-59.8,0-115.3,17.4-161.9,47.2v-44.6C126.6,50.9,28.8,12.8,2.9,0.5H0v738c0,0,87.9-9.2,120.9-56.9
					c48.6,34.5,108.3,55.1,173.2,55.1c162.3,0,294-127.5,294-284.8C588,294.6,456.4,167,294,167 M294,609.5
					c-90.1,0-163.1-70.6-163.1-157.7s73-157.7,163.1-157.7s163.1,70.7,163.1,157.7C457.1,538.9,384,609.5,294,609.5"/>
			</g>
		</g>
	</g>
</g>
</svg>
