<svg xmlns="http://www.w3.org/2000/svg" width="14" height="14" viewBox="0 0 14 14">
    <style>
        svg:hover #globe {
            fill: #fd7e14;
            stroke: #fd7e14;
        }
    </style>
    <g fill="none" fill-rule="evenodd" >
        <g id="globe" fill="#645569" fill-rule="nonzero" stroke="#645569" stroke-width=".2">
            <g>
                <path d="M7 14c1.992 0 3.784-.836 5.06-2.17.12-.127.24-.254.35-.389C13.403 10.233 14 8.686 14 7s-.597-3.233-1.59-4.441c-.11-.135-.23-.262-.35-.388C10.783.836 8.991 0 7 0 5.008 0 3.216.836 1.94 2.17c-.12.127-.24.254-.35.389C.597 3.767 0 5.314 0 7s.597 3.233 1.59 4.441c.11.135.23.262.35.388C3.217 13.164 5.009 14 7 14zm1.896-.823c.565-.524 1.048-1.273 1.413-2.177.468.152.9.332 1.281.54-.74.75-1.662 1.319-2.694 1.637zm3.053-2.03c-.433-.25-.926-.464-1.459-.642.322-.959.515-2.06.54-3.236h2.418c-.061 1.472-.61 2.82-1.499 3.878zm1.5-4.416H11.03c-.026-1.176-.218-2.277-.54-3.236.533-.178 1.025-.392 1.459-.642.887 1.059 1.437 2.406 1.498 3.878zM11.59 2.459c-.38.21-.813.39-1.28.541-.366-.904-.85-1.653-1.414-2.177 1.032.318 1.953.887 2.694 1.636zM7.27.564c1.036.146 1.945 1.13 2.534 2.585-.773.202-1.63.324-2.535.344V.563zm0 3.466c.968-.021 1.886-.156 2.716-.383.3.907.482 1.957.506 3.084H7.27v-2.7zm0 3.24h3.222c-.025 1.126-.206 2.176-.506 3.083-.83-.227-1.748-.362-2.717-.383v-2.7zm0 3.238c.905.02 1.76.141 2.534.344-.589 1.455-1.498 2.438-2.535 2.585v-2.93zM2.41 11.54c.38-.21.813-.39 1.28-.541.366.904.85 1.653 1.414 2.177-1.032-.318-1.953-.887-2.694-1.636zm4.32 1.895c-1.036-.146-1.945-1.13-2.534-2.585.773-.202 1.63-.324 2.535-.344v2.93zm0-3.466c-.968.021-1.886.156-2.716.383-.3-.907-.482-1.957-.506-3.084H6.73v2.7zm0-3.24H3.509c.025-1.126.206-2.176.506-3.083.83.227 1.748.362 2.717.383v2.7zm0-6.166v2.928c-.905-.02-1.76-.141-2.534-.344C4.785 1.693 5.694.71 6.731.564zm-1.626.26C4.54 1.346 4.056 2.095 3.691 3c-.468-.152-.9-.332-1.281-.54.74-.75 1.662-1.319 2.694-1.637zm-3.053 2.03c.433.25.926.463 1.459.641-.322.959-.515 2.06-.54 3.236H.552c.061-1.472.61-2.82 1.499-3.878zm-1.5 4.415H2.97c.026 1.176.218 2.277.54 3.236-.533.178-1.025.392-1.459.642C1.163 10.088.613 8.74.552 7.269z"/>
            </g>
        </g>
    </g>
</svg>
