<svg width="83" height="82" viewBox="0 0 83 82" fill="none" xmlns="http://www.w3.org/2000/svg">
<path d="M38.6197 18.5H36.4397L35.0597 24.84C33.2597 25.21 31.5397 25.79 29.9097 26.53L25.0497 22.21L19.2097 26.45L21.8197 32.43C20.6097 33.76 19.5297 35.21 18.6297 36.79L12.1597 36.16L9.92969 43.02L15.5297 46.3C15.4297 47.19 15.3697 48.09 15.3697 49.01C15.3697 49.93 15.4297 50.82 15.5297 51.72L9.92969 55L12.1597 61.86L18.6297 61.23C19.5297 62.81 20.6097 64.25 21.8197 65.59L19.2097 71.56L25.0497 75.8L29.9097 71.48C31.5397 72.22 33.2597 72.8 35.0597 73.17L36.4397 79.5H43.6497L45.0497 73.17C46.8397 72.8 48.5597 72.22 50.1997 71.48L55.0497 75.8L60.8797 71.56L58.2697 65.59C59.4897 64.25 60.5597 62.81 61.4597 61.23L67.9397 61.86L70.1597 55.01L64.5697 51.73C64.6697 50.83 64.7297 49.94 64.7297 49.02C64.7297 48.1 64.6697 47.2 64.5697 46.31M53.3597 43.46C54.0797 45.17 54.4697 47.05 54.4697 49.02C54.4697 56.98 48.0197 63.42 40.0597 63.42C32.0997 63.42 25.6597 56.97 25.6597 49.02C25.6597 41.07 32.1097 34.62 40.0597 34.62C40.1297 34.62 40.1997 34.62 40.2597 34.62" stroke="#F15B4E" stroke-width="2.5" stroke-linecap="round" stroke-linejoin="round"/>
<path d="M38.6198 19.1899H35.0198L33.6398 25.5299C31.8398 25.8999 30.1198 26.4799 28.4898 27.2199L23.6298 22.8999L17.7898 27.1399L20.3998 33.1199C19.1898 34.4499 18.1098 35.8999 17.2098 37.4799L10.7398 36.8499L8.50977 43.7099L14.1098 46.9899C14.0098 47.8799 13.9498 48.7799 13.9498 49.6999C13.9498 50.6199 14.0098 51.5099 14.1098 52.4099L8.50977 55.6899L10.7398 62.5499L17.2098 61.9199C18.1098 63.4999 19.1898 64.9399 20.3998 66.2799L17.7898 72.2499L23.6298 76.4899L28.4898 72.1699C30.1198 72.9099 31.8398 73.4899 33.6398 73.8599L35.0198 80.1899H42.2298L43.6298 73.8599C45.4198 73.4899 47.1398 72.9099 48.7798 72.1699L53.6298 76.4899L59.4598 72.2499L56.8498 66.2799C58.0698 64.9399 59.1398 63.4999 60.0398 61.9199L66.5198 62.5499L68.7398 55.6999L63.1498 52.4199C63.2498 51.5199 63.3098 50.6299 63.3098 49.7099C63.3098 48.7899 63.2498 47.8899 63.1498 46.9999M51.9598 44.1899C52.6698 45.8899 53.0598 47.7499 53.0598 49.7099C53.0598 57.6699 46.6098 64.1099 38.6498 64.1099C30.6898 64.1099 24.2498 57.6599 24.2498 49.7099C24.2498 41.7599 30.6998 35.3099 38.6498 35.3099C39.5198 35.3099 40.3698 35.3899 41.1898 35.5299" stroke="#0F3250" stroke-width="1.5" stroke-linecap="round" stroke-linejoin="round"/>
<path d="M58.8095 27.6799C59.9803 27.6799 60.9295 26.7308 60.9295 25.5599C60.9295 24.3891 59.9803 23.4399 58.8095 23.4399C57.6386 23.4399 56.6895 24.3891 56.6895 25.5599C56.6895 26.7308 57.6386 27.6799 58.8095 27.6799Z" fill="#F15B4E"/>
<path d="M59.7993 15.2999V22.5899" stroke="#0C3455" stroke-width="1.5" stroke-miterlimit="10" stroke-linecap="round"/>
<path d="M61.0693 26.3999L67.4493 32.7799" stroke="#0C3455" stroke-width="1.5" stroke-miterlimit="10" stroke-linecap="round"/>
<path d="M77.2896 11.03L74.3696 12.86" stroke="#0C3455" stroke-width="1.5" stroke-miterlimit="10" stroke-linecap="round"/>
<path d="M41.9194 11.03L45.1894 13.22" stroke="#0C3455" stroke-width="1.5" stroke-miterlimit="10" stroke-linecap="round"/>
<path d="M59.5293 2.09998V5.95998" stroke="#0C3455" stroke-width="1.5" stroke-miterlimit="10" stroke-linecap="round"/>
<path d="M55.7095 2.09998H63.3595" stroke="#0C3455" stroke-width="1.5" stroke-miterlimit="10" stroke-linecap="round"/>
<path d="M59.7992 26.82C60.97 26.82 61.9192 25.8708 61.9192 24.7C61.9192 23.5291 60.97 22.58 59.7992 22.58C58.6284 22.58 57.6792 23.5291 57.6792 24.7C57.6792 25.8708 58.6284 26.82 59.7992 26.82Z" stroke="#0C3455" stroke-width="1.5" stroke-miterlimit="10" stroke-linecap="round"/>
<path d="M69.9896 33.89C67.3896 36.72 63.6696 38.49 59.5296 38.49C51.6896 38.49 45.3296 32.13 45.3296 24.29C45.3296 16.45 51.6896 10.09 59.5296 10.09C67.3696 10.09 73.7296 16.45 73.7296 24.29C73.7296 25.76 73.5096 27.18 73.0896 28.51" stroke="#0C3455" stroke-width="1.5" stroke-miterlimit="10" stroke-linecap="round"/>
<path d="M71.1895 26.25L73.0994 29.09L75.5495 26.45" stroke="#0C3455" stroke-width="1.5" stroke-linecap="round" stroke-linejoin="round"/>
<path d="M59.5297 43.07C69.6751 43.07 77.8997 34.8454 77.8997 24.7C77.8997 14.5545 69.6751 6.32996 59.5297 6.32996C49.3842 6.32996 41.1597 14.5545 41.1597 24.7C41.1597 34.8454 49.3842 43.07 59.5297 43.07Z" stroke="#0C3455" stroke-width="1.5" stroke-miterlimit="10" stroke-linecap="round"/>
</svg>
