<svg width="83" height="82" viewBox="0 0 83 82" fill="none" xmlns="http://www.w3.org/2000/svg">
<g clip-path="url(#clip0_110_1506)">
<path d="M48.3297 50.02C50.3124 50.02 51.9197 48.4127 51.9197 46.43C51.9197 44.4473 50.3124 42.84 48.3297 42.84C46.347 42.84 44.7397 44.4473 44.7397 46.43C44.7397 48.4127 46.347 50.02 48.3297 50.02Z" fill="#F15B4E"/>
<path d="M50.0098 29.0099V41.3899" stroke="#0C3455" stroke-width="1.34" stroke-miterlimit="10" stroke-linecap="round"/>
<path d="M52.1597 47.8599L63.0097 58.7099" stroke="#0C3455" stroke-width="1.34" stroke-miterlimit="10" stroke-linecap="round"/>
<path d="M79.7098 21.75L74.7598 24.85" stroke="#0C3455" stroke-width="1.34" stroke-miterlimit="10" stroke-linecap="round"/>
<path d="M19.6196 21.75L25.1896 25.47" stroke="#0C3455" stroke-width="1.34" stroke-miterlimit="10" stroke-linecap="round"/>
<path d="M49.5498 6.56995V13.1299" stroke="#0C3455" stroke-width="1.34" stroke-miterlimit="10" stroke-linecap="round"/>
<path d="M43.0498 6.56995H56.0398" stroke="#0C3455" stroke-width="1.34" stroke-miterlimit="10" stroke-linecap="round"/>
<path d="M50.0099 48.5699C51.9926 48.5699 53.5999 46.9626 53.5999 44.9799C53.5999 42.9972 51.9926 41.3899 50.0099 41.3899C48.0272 41.3899 46.4199 42.9972 46.4199 44.9799C46.4199 46.9626 48.0272 48.5699 50.0099 48.5699Z" stroke="#0C3455" stroke-width="1.34" stroke-miterlimit="10" stroke-linecap="round"/>
<path d="M7.10986 34.12H20.2199" stroke="#0C3455" stroke-width="1.5" stroke-miterlimit="10" stroke-linecap="round"/>
<path d="M1.2998 34.12H3.9298" stroke="#0C3455" stroke-width="1.5" stroke-miterlimit="10" stroke-linecap="round"/>
<path d="M11.7798 42.1899H20.2198" stroke="#0C3455" stroke-width="1.5" stroke-miterlimit="10" stroke-linecap="round"/>
<path d="M4.45996 42.1899H9.19996" stroke="#0C3455" stroke-width="1.5" stroke-miterlimit="10" stroke-linecap="round"/>
<path d="M13.6597 50.25H20.2197" stroke="#0C3455" stroke-width="1.5" stroke-miterlimit="10" stroke-linecap="round"/>
<path d="M1.2998 50.25H10.7298" stroke="#0C3455" stroke-width="1.5" stroke-miterlimit="10" stroke-linecap="round"/>
<path d="M67.3197 60.5799C62.9097 65.3799 56.5797 68.3899 49.5497 68.3899C36.2297 68.3899 25.4297 57.5899 25.4297 44.2699C25.4297 30.9499 36.2297 20.1499 49.5497 20.1499C62.8697 20.1499 73.6697 30.9499 73.6697 44.2699C73.6697 46.7699 73.2897 49.1799 72.5897 51.4399" stroke="#0C3455" stroke-width="1.34" stroke-miterlimit="10" stroke-linecap="round"/>
<path d="M20.5596 34.12C24.7696 21.91 36.3596 13.13 50.0096 13.13C67.2096 13.13 81.1496 27.07 81.1496 44.27C81.1496 61.47 67.2096 75.41 50.0096 75.41C37.8596 75.41 27.3396 68.45 22.2096 58.31" stroke="#0C3455" stroke-width="1.34" stroke-miterlimit="10" stroke-linecap="round"/>
<path d="M69.3599 47.61L72.5999 52.43L76.7599 47.95" stroke="#0C3455" stroke-width="1.34" stroke-linecap="round" stroke-linejoin="round"/>
<path d="M15.5098 58.3099H22.2098" stroke="#0C3455" stroke-width="1.5" stroke-miterlimit="10" stroke-linecap="round"/>
<path d="M3.52979 58.3099H12.5298" stroke="#0C3455" stroke-width="1.5" stroke-miterlimit="10" stroke-linecap="round"/>
</g>
<defs>
<clipPath id="clip0_110_1506">
<rect width="82" height="82" fill="white" transform="translate(0.25)"/>
</clipPath>
</defs>
</svg>
