<svg width="83" height="82" viewBox="0 0 83 82" fill="none" xmlns="http://www.w3.org/2000/svg">
<g clip-path="url(#clip0_110_1911)">
<path d="M24.6796 46.68C27.6343 46.68 30.0296 44.2847 30.0296 41.33C30.0296 38.3753 27.6343 35.98 24.6796 35.98C21.7249 35.98 19.3296 38.3753 19.3296 41.33C19.3296 44.2847 21.7249 46.68 24.6796 46.68Z" fill="#FF5F4B"/>
<path d="M41.6395 57.3801C44.5943 57.3801 46.9896 54.9848 46.9896 52.0301C46.9896 49.0753 44.5943 46.6801 41.6395 46.6801C38.6848 46.6801 36.2896 49.0753 36.2896 52.0301C36.2896 54.9848 38.6848 57.3801 41.6395 57.3801Z" fill="#FF5F4B"/>
<path d="M41.6398 80.42C63.5268 80.42 81.2698 62.6771 81.2698 40.79C81.2698 18.903 63.5268 1.16003 41.6398 1.16003C19.7527 1.16003 2.00977 18.903 2.00977 40.79C2.00977 62.6771 19.7527 80.42 41.6398 80.42Z" stroke="#0F3250" stroke-width="1.5" stroke-linecap="round" stroke-linejoin="round"/>
<path d="M22.37 42.3101L6.70996 57.9601" stroke="#0F3250" stroke-width="1.5" stroke-linecap="round" stroke-linejoin="round"/>
<path d="M39.2296 48.14L31.6396 41.61" stroke="#0F3250" stroke-width="1.5" stroke-linecap="round" stroke-linejoin="round"/>
<path d="M69.6996 24.8401L48.8496 47.1301" stroke="#0F3250" stroke-width="1.5" stroke-linecap="round" stroke-linejoin="round"/>
<path d="M57.1699 24.54H70.0099V37.39" stroke="#0F3250" stroke-width="1.5" stroke-linecap="round" stroke-linejoin="round"/>
<path d="M26.81 44.6701C29.7647 44.6701 32.16 42.2748 32.16 39.3201C32.16 36.3654 29.7647 33.9701 26.81 33.9701C23.8552 33.9701 21.46 36.3654 21.46 39.3201C21.46 42.2748 23.8552 44.6701 26.81 44.6701Z" stroke="#0F3250" stroke-width="1.5" stroke-linecap="round" stroke-linejoin="round"/>
<path d="M44.1898 55.69C47.1446 55.69 49.5398 53.2947 49.5398 50.34C49.5398 47.3853 47.1446 44.99 44.1898 44.99C41.2351 44.99 38.8398 47.3853 38.8398 50.34C38.8398 53.2947 41.2351 55.69 44.1898 55.69Z" stroke="#0F3250" stroke-width="1.5" stroke-linecap="round" stroke-linejoin="round"/>
</g>
<defs>
<clipPath id="clip0_110_1911">
<rect width="82" height="82" fill="white" transform="translate(0.75)"/>
</clipPath>
</defs>
</svg>
