<svg width="83" height="82" viewBox="0 0 83 82" fill="none" xmlns="http://www.w3.org/2000/svg">
<path d="M39.1553 69.9668H45.3201" stroke="#FF5E45" stroke-width="1.5" stroke-linecap="round" stroke-linejoin="round"/>
<path d="M49.252 69.9668H55.4168" stroke="#FF5E45" stroke-width="1.5" stroke-linecap="round" stroke-linejoin="round"/>
<path d="M59.3491 69.9668H65.5041" stroke="#FF5E45" stroke-width="1.5" stroke-linecap="round" stroke-linejoin="round"/>
<path d="M69.4458 69.9668H75.6007" stroke="#FF5E45" stroke-width="1.5" stroke-linecap="round" stroke-linejoin="round"/>
<path d="M8.87451 69.9668H15.0295" stroke="#FF5E45" stroke-width="1.5" stroke-linecap="round" stroke-linejoin="round"/>
<path d="M18.9712 69.9668H25.1261" stroke="#FF5E45" stroke-width="1.5" stroke-linecap="round" stroke-linejoin="round"/>
<path d="M29.0586 69.9668H35.2234" stroke="#FF5E45" stroke-width="1.5" stroke-linecap="round" stroke-linejoin="round"/>
<path d="M38.1675 68.9788H44.3323" stroke="#003157" stroke-width="1.5" stroke-linecap="round" stroke-linejoin="round"/>
<path d="M48.2642 68.9788H54.429" stroke="#003157" stroke-width="1.5" stroke-linecap="round" stroke-linejoin="round"/>
<path d="M58.3613 68.9788H64.5163" stroke="#003157" stroke-width="1.5" stroke-linecap="round" stroke-linejoin="round"/>
<path d="M68.458 68.9788H74.6129" stroke="#003157" stroke-width="1.5" stroke-linecap="round" stroke-linejoin="round"/>
<path d="M7.88672 68.9788H14.0417" stroke="#003157" stroke-width="1.5" stroke-linecap="round" stroke-linejoin="round"/>
<path d="M17.9834 68.9788H24.1383" stroke="#003157" stroke-width="1.5" stroke-linecap="round" stroke-linejoin="round"/>
<path d="M28.0708 68.9788H34.2356" stroke="#003157" stroke-width="1.5" stroke-linecap="round" stroke-linejoin="round"/>
<path d="M32.0125 41.3952C32.0125 39.4489 30.4515 37.8879 28.5053 37.8879C26.559 37.8879 24.998 39.4489 24.998 41.3952C24.998 43.3414 26.559 44.9024 28.5053 44.9024C30.4515 44.9024 32.0125 43.3414 32.0125 41.3952Z" fill="#FF5E45"/>
<path d="M32.0125 41.3952C32.0125 39.4489 30.4515 37.8879 28.5053 37.8879C26.559 37.8879 24.998 39.4489 24.998 41.3952C24.998 43.3414 26.559 44.9024 28.5053 44.9024C30.4515 44.9024 32.0125 43.3414 32.0125 41.3952Z" stroke="#0F3250" stroke-width="1.5"/>
<path d="M15.6028 54.7128C15.6028 52.7665 14.0419 51.2056 12.0956 51.2056C10.1493 51.2056 8.58838 52.7665 8.58838 54.7128C8.58838 56.6591 10.1493 58.22 12.0956 58.22C14.0419 58.22 15.6028 56.6591 15.6028 54.7128Z" fill="#FF5E45"/>
<path d="M15.6028 54.7128C15.6028 52.7665 14.0419 51.2056 12.0956 51.2056C10.1493 51.2056 8.58838 52.7665 8.58838 54.7128C8.58838 56.6591 10.1493 58.22 12.0956 58.22C14.0419 58.22 15.6028 56.6591 15.6028 54.7128Z" stroke="#0F3250" stroke-width="1.5"/>
<path d="M61.8685 55.7007C61.8685 53.7544 60.3075 52.1935 58.3612 52.1935C56.415 52.1935 54.854 53.7544 54.854 55.7007C54.854 57.647 56.415 59.2079 58.3612 59.2079C60.3075 59.2079 61.8685 57.647 61.8685 55.7007Z" fill="#FF5E45"/>
<path d="M61.8685 55.7007C61.8685 53.7544 60.3075 52.1935 58.3612 52.1935C56.415 52.1935 54.854 53.7544 54.854 55.7007C54.854 57.647 56.415 59.2079 58.3612 59.2079C60.3075 59.2079 61.8685 57.647 61.8685 55.7007Z" stroke="#0F3250" stroke-width="1.5"/>
<path d="M76.2532 47.2537C76.2532 45.3074 74.6923 43.7465 72.746 43.7465C70.7997 43.7465 69.2388 45.3074 69.2388 47.2537C69.2388 49.2 70.7997 50.7609 72.746 50.7609C74.6923 50.7609 76.2532 49.2 76.2532 47.2537Z" fill="#FF5E45"/>
<path d="M76.2532 47.2537C76.2532 45.3074 74.6923 43.7465 72.746 43.7465C70.7997 43.7465 69.2388 45.3074 69.2388 47.2537C69.2388 49.2 70.7997 50.7609 72.746 50.7609C74.6923 50.7609 76.2532 49.2 76.2532 47.2537Z" stroke="#0F3250" stroke-width="1.5"/>
<path d="M14.5356 52.1935L25.4229 43.0846" stroke="#003157" stroke-width="1.5" stroke-miterlimit="10"/>
<path d="M32.0127 41.3951L37.6835 44.4776L45.3006 48.6171L55.2691 54.031" stroke="#003157" stroke-width="1.5" stroke-miterlimit="10" stroke-linecap="round"/>
<path d="M61.8682 54.0212L70.493 48.8345" stroke="#003157" stroke-width="1.5" stroke-miterlimit="10"/>
<path d="M60.8604 22.1894L64.0119 25.8744L71.2042 18.6821" stroke="#FF5E45" stroke-width="1.5" stroke-linecap="round" stroke-linejoin="round"/>
<path d="M64.5159 32.8889C70.4251 32.8889 75.2154 28.0986 75.2154 22.1894C75.2154 16.2802 70.4251 11.4899 64.5159 11.4899C58.6067 11.4899 53.8164 16.2802 53.8164 22.1894C53.8164 28.0986 58.6067 32.8889 64.5159 32.8889Z" stroke="#0F3250" stroke-width="1.5" stroke-miterlimit="10" stroke-linecap="round"/>
<path d="M60.2578 22.1894L63.4094 25.8744L70.6017 18.6821" stroke="#0F3250" stroke-width="1.5" stroke-miterlimit="10" stroke-linecap="round"/>
</svg>
