<?xml version="1.0" encoding="utf-8"?>
<!-- Generator: Adobe Illustrator 25.3.1, SVG Export Plug-In . SVG Version: 6.00 Build 0)  -->
<svg version="1.1" id="Layer_1" xmlns="http://www.w3.org/2000/svg" xmlns:xlink="http://www.w3.org/1999/xlink" x="0px" y="0px"
	 viewBox="0 0 337 330" style="enable-background:new 0 0 337 330;" xml:space="preserve">
<style type="text/css">
	.st0{fill:#FFAFA5;}
</style>
<g>
	<path class="st0" d="M5.4,2.9C15.7,4.4,42.5,8.7,70.7,19c35.5,12.9,60.6,30.2,74.8,51.4l1.1,1.7l1.7-1.2
		C202.7,33.3,267.3,10.2,335,4v144.2c-82.3,7.1-166.8,75.7-167.9,179.7H2V2.9H5.4 M5.5,0.9H0v329h169.1
		c0-101.1,80.5-173.2,167.9-179.8V1.9c-71,6.1-136.2,30.3-189.9,67.4C113.2,18.5,26.1,3.8,5.5,0.9L5.5,0.9z"/>
</g>
</svg>
