<?xml version="1.0" encoding="utf-8"?>
<!-- Generator: Adobe Illustrator 25.3.1, SVG Export Plug-In . SVG Version: 6.00 Build 0)  -->
<svg version="1.1" id="Layer_1" xmlns="http://www.w3.org/2000/svg" xmlns:xlink="http://www.w3.org/1999/xlink" x="0px" y="0px"
	 viewBox="0 0 520 488" style="enable-background:new 0 0 520 488;" xml:space="preserve">
<style type="text/css">
	.st0{fill:#ACE0EF;}
</style>
<g>
	<path class="st0" d="M270.2,2c33.4,0.2,65.9,6.7,96.4,19.4c29.5,12.3,56,29.8,78.8,52c22.8,22.2,40.6,48.1,53.1,76.8
		c12.9,29.7,19.5,61.3,19.5,93.8c0,32.5-6.6,64.1-19.5,93.8c-12.5,28.7-30.4,54.6-53.1,76.8c-22.8,22.2-49.3,39.7-78.8,52
		c-30.5,12.7-63,19.2-96.4,19.4l-1.5,0H2v0c0.6-1.3,1.3-2.9,2.1-4.6c6.4-14,18.4-40.1,40.8-63.2c27.3-28.2,62-43.5,103.1-45.5h121
		c76.3-0.1,138.4-57.8,138.4-128.7c0-71-62.1-128.8-138.5-128.8l-58,0c-28.1-0.3-53.5-6.5-75.6-18.5C117.7,87,102.1,73.7,89,57
		C70.5,33.4,62.2,9.6,59.9,2H270.2 M270.2,0h-213c0,0,29,116,153.7,117.2h58c75.2,0,136.5,56.9,136.5,126.8
		c0,69.9-61.2,126.6-136.4,126.7h-121C44.1,375.6,10.8,463,0,485.5v2.5h270.2v0C408.1,487.3,520,378.1,520,244S408.1,0.7,270.2,0
		L270.2,0z M147.9,370.7h-2.3H147.9L147.9,370.7z"/>
</g>
</svg>
